<?xml version="1.0" encoding="UTF-8" standalone="no"?>
<!-- Created with Inkscape (http://www.inkscape.org/) -->

<svg
   version="1.1"
   id="svg1"
   width="797.48981"
   height="620.9599"
   viewBox="0 0 797.48981 620.9599"
   sodipodi:docname="dashboard.svg"
   inkscape:version="1.3 (0e150ed6c4, 2023-07-21)"
   xmlns:inkscape="http://www.inkscape.org/namespaces/inkscape"
   xmlns:sodipodi="http://sodipodi.sourceforge.net/DTD/sodipodi-0.dtd"
   xmlns="http://www.w3.org/2000/svg"
   xmlns:svg="http://www.w3.org/2000/svg">
  <defs
     id="defs1" />
  <sodipodi:namedview
     id="namedview1"
     pagecolor="#ffffff"
     bordercolor="#000000"
     borderopacity="0.25"
     inkscape:showpageshadow="2"
     inkscape:pageopacity="0.0"
     inkscape:pagecheckerboard="0"
     inkscape:deskcolor="#d1d1d1"
     inkscape:zoom="1.1523658"
     inkscape:cx="398.7449"
     inkscape:cy="310.23134"
     inkscape:window-width="1760"
     inkscape:window-height="919"
     inkscape:window-x="-8"
     inkscape:window-y="-8"
     inkscape:window-maximized="1"
     inkscape:current-layer="g1" />
  <g
     inkscape:groupmode="layer"
     inkscape:label="Image"
     id="g1"
     transform="translate(930.71027,43.509674)">
    <path
       style="fill:#000000"
       d="m -907.71024,576.59934 c -8.86334,-2.14395 -17.11592,-8.84091 -20.85084,-16.92044 l -2.14916,-4.64917 v -265 -264.999995 l 2.66071,-5 c 3.17112,-5.959163 7.70419,-10.4276813 13.83929,-13.6421983 4.25974,-2.231915 5.66363,-2.374904 26.2947,-2.678172 l 21.79471,-0.320373 3.03539,-4.17962701 c 1.66947,-2.29879499 6.31513,-10.96091469 10.32367,-19.24915469 4.70212,-9.722292 8.70604,-16.559908 11.28381,-19.269706 l 3.99553,-4.200178 71.0708,0.269706 71.0708,0.269706 3.13238,3 c 1.76876,1.694009 6.86819,10.400613 11.71395,20 4.71987,9.35 9.69048,18.4590787 11.04581,20.24239869 l 2.46423,3.24239901 256.13711,0.257601 256.13711,0.257601 5.12334,2.702667 c 2.81785,1.486466 6.94655,4.7739283 9.1749,7.3054703 7.87448,8.94588 7.20688,-16.8350623 7.15786,276.419995 -0.0365,218.39968 -0.27203,263.21147 -1.40004,266.37387 -3.32724,9.32803 -10.68227,16.17315 -20.51565,19.09335 -4.9201,1.46111 -38.68386,1.59549 -377.47192,1.50228 -204.63767,-0.0563 -373.41849,-0.42891 -375.06849,-0.82803 z m 722.06345,-46.24192 c 6.05256,-3.19433 11.77021,-9.26129 14.75652,-15.65802 l 2.18003,-4.66967 0.26136,-213.43133 c 0.28784,-235.048325 0.66491,-220.228395 -5.84407,-229.688865 -1.7004,-2.47145 -4.92605,-5.82239 -7.16811,-7.44653 -8.83827,-6.4024 19.05849,-5.93327 -352.81585,-5.93327 -386.26118,0 -344.89557,-1.10024 -355.51195,9.45589 -10.43479,10.37557 -9.42138,-14.42853 -9.42138,230.596515 0,235.14622 -0.42316,218.3825 5.7373,227.28462 2.9831,4.31069 9.42109,9.08916 15.0253,11.15224 3.1488,1.15917 57.59884,1.3471 345.7374,1.19329 l 342,-0.18256 z m -654.34423,-65.07769 0.28078,-12.25 312.75,-0.25158 312.75,-0.25158 v 12.50158 12.50158 H -527.24102 -840.2718 Z m 147.78078,-134.25 v -66.5 h 66.03138 c 58.28691,0 66.1001,0.17907 66.61727,1.52679 0.32223,0.83973 0.0805,6.35304 -0.53709,12.2518 -6.25043,59.69504 -51.09494,107.39829 -110.61156,117.66284 -4.95,0.8537 -11.8125,1.55362 -15.25,1.55538 l -6.25,0.003 z m -46.5,41.57643 c -55.23874,-9.94533 -98.40526,-53.19815 -108.13668,-108.35287 -3.20126,-18.14378 -1.70505,-42.52569 3.75701,-61.22356 3.08055,-10.5454 12.85271,-29.93732 19.90522,-39.5 20.21137,-27.40511 49.68443,-45.94651 83.70454,-52.65824 13.01368,-2.56743 36.60402,-2.3225 50.00358,0.51918 26.69373,5.661 48.72584,17.56453 67.78335,36.62204 23.39935,23.39935 36.08816,51.26674 39.05214,85.76702 l 0.66581,7.75 h -66.61749 -66.61748 l -0.17635,7.25 c -0.097,3.9875 -0.20949,33.8 -0.25,66.25 l -0.0737,59 -6.5,0.18843 c -3.575,0.10364 -11,-0.62176 -16.5,-1.612 z m 288.5,-62.07643 v -57 h 28.5 28.5 v 57 57 h -28.5 -28.5 z m 86,-29 v -86 h 28.5 28.5 v 86 86 h -28.5 -28.5 z m 86,-28.5 v -114.5 h 28.5 28.5 v 114.5 114.5 h -28.5 -28.5 z"
       id="path1"
       inkscape:export-filename="dashboard.png"
       inkscape:export-xdpi="96"
       inkscape:export-ydpi="96" />
    <path
       style="fill:#ffffff;stroke:#2b1105;stroke-width:3.93576"
       d="m 43.388999,619.62899 -22.996169,-0.46797 -4.647315,-2.5741 C 10.192825,613.51136 4.8624897,607.75387 2.0606586,601.80542 L 0.01695451,597.46652 0.00847726,333.43131 0,69.396108 2.8026157,64.419518 C 6.2662418,58.269177 11.712773,52.86376 17.138637,50.191714 c 3.93267,-1.9367 5.126901,-2.043391 26.003798,-2.323142 l 21.881826,-0.293216 3.353917,-5.347353 c 1.844656,-2.941045 6.641435,-11.762839 10.659509,-19.603987 4.064147,-7.931058 8.8472,-15.9593907 10.780075,-18.0943212 l 3.474479,-3.83768756 70.717519,0.12992611 70.71751,0.12992619 2.419,2.31754216 c 2.67729,2.564999 7.17134,10.0896773 15.40961,25.8012283 3.0031,5.727347 6.65884,12.268239 8.12386,14.535314 l 2.66367,4.121955 h 255.82091 255.82091 l 4.29368,2.175778 c 2.36154,1.196678 6.65243,4.418311 9.53533,7.159185 4.71262,4.480458 5.34923,5.508889 6.30776,10.190087 1.63354,7.977706 1.54782,529.720581 -0.0878,534.341321 -1.60968,4.54749 -9.11464,12.46489 -14.38647,15.17707 -4.00494,2.06043 -5.71816,2.33288 -18.30301,2.91066 -15.68428,0.72008 -683.38475,0.67086 -718.955721,-0.053 z M 744.95738,574.48851 c 5.88177,-3.36521 12.99221,-10.94265 15.67438,-16.70384 l 2.12989,-4.57493 -0.0172,-202.19274 c -0.009,-111.206 -0.369,-209.14 -0.79897,-217.6311 -0.92158,-18.1998 -1.64998,-20.32044 -9.72893,-28.32456 -4.02464,-3.98735 -6.12437,-5.375722 -9.25387,-6.11881 C 734.46591,96.925019 609.65062,96.20701 341.90531,96.635407 82.556488,97.050379 56.686724,97.323712 48.071603,99.74002 c -4.032995,1.13114 -13.004122,10.55321 -14.294399,15.01291 -2.159897,7.46546 -2.520857,39.74999 -2.505736,224.11515 0.0151,184.11876 0.369354,215.54663 2.492123,221.09091 1.309057,3.41901 8.425127,10.7709 13.066672,13.49969 3.310464,1.94625 5.311899,2.39173 12.612666,2.80731 4.77279,0.27167 159.949401,0.56455 344.836911,0.65083 l 336.15912,0.15687 z"
       id="path2"
       transform="translate(-930.71027,-43.509674)" />
    <path
       style="fill:#ffffff;stroke:#2b1105;stroke-width:3.93576"
       d="m 194.81661,416.02372 c -18.69106,-2.89663 -40.41984,-11.77661 -56.4057,-23.05151 -9.99807,-7.05168 -24.48596,-21.53863 -31.5439,-31.54185 -6.19494,-8.78008 -14.601518,-25.34956 -17.83098,-35.14509 -7.184935,-21.79317 -8.223407,-46.66418 -2.970949,-71.15309 3.953399,-18.4322 15.923619,-41.63362 29.327529,-56.84445 35.74603,-40.56476 91.91083,-55.50803 143.09649,-38.07241 42.77441,14.57045 77.38244,54.00188 86.34854,98.38312 1.4553,7.2036 3.14213,19.88609 3.14213,23.62424 v 2.40916 H 281.73504 215.4903 l -0.57292,29.28757 c -0.31512,16.10817 -0.57356,45.98149 -0.57434,66.38517 l -0.001,37.09759 -5.85752,-0.084 c -3.22163,-0.0462 -9.37202,-0.62871 -13.66753,-1.2944 z"
       id="path3"
       transform="translate(-930.71027,-43.509674)" />
    <path
       style="fill:#ffffff;stroke:#2b1105;stroke-width:3.93576"
       d="M 238.6395,374.57515 V 308.0619 l 48.37873,0.11753 c 26.6083,0.0646 56.18875,0.35753 65.73433,0.65084 l 17.3556,0.5333 -0.13547,8.67779 c -0.23389,14.98286 -6.23823,36.53165 -14.38695,51.63291 -9.39486,17.4106 -25.17264,35.51152 -40.32534,46.26285 -19.63068,13.92861 -44.54593,22.90592 -68.16005,24.55899 l -8.46085,0.59229 z"
       id="path4"
       transform="translate(-930.71027,-43.509674)" />
    <path
       style="fill:#ffffff;stroke:#2b1105;stroke-width:3.93576"
       d="m 91.116899,509.09664 v -11.57135 l 131.612661,-0.57757 c 72.38696,-0.31766 212.96732,-0.57757 312.40079,-0.57757 h 180.78814 v 12.14892 12.14892 H 403.51769 91.116899 Z"
       id="path5"
       transform="translate(-930.71027,-43.509674)" />
    <path
       style="fill:#ffffff;stroke:#2b1105;stroke-width:3.93576"
       d="m 480.75011,354.05423 v -56.40569 h 28.20285 28.20285 v 56.40569 56.4057 h -28.20285 -28.20285 z"
       id="path6"
       transform="translate(-930.71027,-43.509674)" />
    <path
       style="fill:#ffffff;stroke:#2b1105;stroke-width:3.93576"
       d="m 566.66033,324.9836 v -85.47632 h 28.20285 28.20285 v 85.47632 85.47633 h -28.20285 -28.20285 z"
       id="path7"
       transform="translate(-930.71027,-43.509674)" />
    <path
       style="fill:#ffffff;stroke:#2b1105;stroke-width:3.93576"
       d="M 652.57055,296.34687 V 182.2338 h 28.20285 28.20285 V 296.34687 410.45993 H 680.7734 652.57055 Z"
       id="path8"
       transform="translate(-930.71027,-43.509674)" />
  </g>
</svg>
