<?xml version="1.0" encoding="UTF-8" standalone="no"?>
<svg
   class="svg-icon"
   style="width: 1em;height: 1em;vertical-align: middle;fill: currentColor;overflow: hidden;"
   viewBox="0 0 1024 1024"
   version="1.1"
   id="svg6"
   sodipodi:docname="questionnaire-15.svg"
   inkscape:version="1.3 (0e150ed6c4, 2023-07-21)"
   xmlns:inkscape="http://www.inkscape.org/namespaces/inkscape"
   xmlns:sodipodi="http://sodipodi.sourceforge.net/DTD/sodipodi-0.dtd"
   xmlns="http://www.w3.org/2000/svg"
   xmlns:svg="http://www.w3.org/2000/svg">
  <defs
     id="defs6" />
  <sodipodi:namedview
     id="namedview6"
     pagecolor="#ffffff"
     bordercolor="#000000"
     borderopacity="0.25"
     inkscape:showpageshadow="2"
     inkscape:pageopacity="0.0"
     inkscape:pagecheckerboard="0"
     inkscape:deskcolor="#d1d1d1"
     inkscape:zoom="0.70605469"
     inkscape:cx="512"
     inkscape:cy="512"
     inkscape:window-width="1760"
     inkscape:window-height="919"
     inkscape:window-x="-8"
     inkscape:window-y="-8"
     inkscape:window-maximized="1"
     inkscape:current-layer="svg6" />
  <path
     d="M-194.9905014-194.9905014m706.9905014 0l0 0q706.9905014 0 706.9905014 706.9905014l0 0q0 706.9905014-706.9905014 706.9905014l0 0q-706.9905014 0-706.9905014-706.9905014l0 0q0-706.9905014 706.9905014-706.9905014Z"
     fill="#FFFFFF"
     id="path1" />
  <path
     d="M208.592593 227.555556h606.814814v640.948148H208.592593V227.555556z"
     fill="#4CA7FC"
     id="path2"
     style="fill:#000000" />
  <path
     d="M358.915793 149.989452v90.658133h313.7536V149.989452H358.915793zM329.955556 121.362963v147.911111h371.674074V121.362963H329.955556zM747.140741 405.807407h-292.02963v-30.34074h292.02963v30.34074z"
     fill="#FFFFFF"
     id="path3" />
  <path
     d="M356.503704 151.703704h314.785185v91.022222H356.503704V151.703704z"
     fill="#4CA7FC"
     id="path4"
     style="fill:#000000" />
  <path
     d="M747.140741 515.792593h-292.02963v-26.548149h292.02963v26.548149zM747.140741 667.496296h-292.02963v-30.34074h292.02963v30.34074zM747.140741 781.274074h-292.02963v-30.340741h292.02963v30.340741zM310.708148 479.163733l-44.665363-27.189096 15.022459-24.682193 44.669156 27.189097-15.026252 24.682192z"
     fill="#FFFFFF"
     id="path5" />
  <path
     d="M309.608296 478.450726L370.612148 370.062222l25.182815 14.172919-61.003852 108.388503-25.182815-14.172918zM326.162963 737.886815c17.426963 0 31.55437-13.687467 31.55437-30.568296 0-16.88083-14.127407-30.568296-31.55437-30.568297-17.426963 0-31.55437 13.687467-31.55437 30.568297 0 16.88083 14.127407 30.568296 31.55437 30.568296z m0 28.216889c33.515141 0 60.681481-26.320593 60.681481-58.785185 0-32.464593-27.166341-58.785185-60.681481-58.785186s-60.681481 26.320593-60.681482 58.785186c0 32.464593 27.166341 58.785185 60.681482 58.785185z"
     fill="#FFFFFF"
     id="path6" />
</svg>
